{
  "accessors": [
    {
      "bufferView": 2,
      "componentType": 5126,
      "count": 98,
      "max": [
        0.14824099838733673,
        0.49751099944114685,
        0.2037840038537979
      ],
      "min": [
        -0.10654199868440628,
        0.32032299041748047,
        -0.0051290299743413925
      ],
      "type": "VEC3"
    },
    {
      "bufferView": 2,
      "byteOffset": 1176,
      "componentType": 5126,
      "count": 98,
      "max": [
        0.8974605798721313,
        0.9741442203521729,
        0.9667362570762634
      ],
      "min": [
        -0.8974605798721313,
        -0.9741442203521729,
        -0.9667362570762634
      ],
      "type": "VEC3"
    },
    {
      "bufferView": 3,
      "componentType": 5126,
      "count": 98,
      "max": [
        0.9511985182762146,
        0.9956982135772705,
        0.7661911845207214,
        1.0
      ],
      "min": [
        -0.9811863303184509,
        -0.7921885848045349,
        -0.9925262331962585,
        1.0
      ],
      "type": "VEC4"
    },
    {
      "bufferView": 1,
      "componentType": 5126,
      "count": 98,
      "max": [
        0.8104050159454346,
        0.9208729863166809
      ],
      "min": [
        0.07912710309028625,
        0.07912710309028625
      ],
      "type": "VEC2"
    },
    {
      "bufferView": 1,
      "byteOffset": 784,
      "componentType": 5126,
      "count": 98,
      "max": [
        0.8104050159454346,
        0.9208729863166809
      ],
      "min": [
        0.07912710309028625,
        0.07912710309028625
      ],
      "type": "VEC2"
    },
    {
      "bufferView": 0,
      "componentType": 5125,
      "count": 360,
      "type": "SCALAR"
    },
    {
      "bufferView": 2,
      "byteOffset": 2352,
      "componentType": 5126,
      "count": 362,
      "max": [
        0.09175939857959747,
        0.4636699855327606,
        0.45928600430488586
      ],
      "min": [
        -0.44652798771858215,
        -0.9016259908676147,
        -0.02939780056476593
      ],
      "type": "VEC3"
    },
    {
      "bufferView": 2,
      "byteOffset": 6696,
      "componentType": 5126,
      "count": 362,
      "max": [
        0.9931359887123108,
        0.9947568774223328,
        0.8837282657623291
      ],
      "min": [
        -0.9167830944061279,
        -0.9024323225021362,
        -0.9888361096382141
      ],
      "type": "VEC3"
    },
    {
      "bufferView": 3,
      "byteOffset": 1568,
      "componentType": 5126,
      "count": 362,
      "max": [
        0.98294597864151,
        0.999580979347229,
        0.9860854744911194,
        1.0
      ],
      "min": [
        -0.9848843812942505,
        -0.9998778104782104,
        -0.9732740521430969,
        1.0
      ],
      "type": "VEC4"
    },
    {
      "bufferView": 1,
      "byteOffset": 1568,
      "componentType": 5126,
      "count": 362,
      "max": [
        0.9263229966163635,
        0.9727630019187927
      ],
      "min": [
        0.027236800640821457,
        0.027236800640821457
      ],
      "type": "VEC2"
    },
    {
      "bufferView": 1,
      "byteOffset": 4464,
      "componentType": 5126,
      "count": 362,
      "max": [
        0.9263229966163635,
        0.9727630019187927
      ],
      "min": [
        0.027236800640821457,
        0.027236800640821457
      ],
      "type": "VEC2"
    },
    {
      "bufferView": 0,
      "byteOffset": 1440,
      "componentType": 5125,
      "count": 1314,
      "type": "SCALAR"
    },
    {
      "bufferView": 2,
      "byteOffset": 11040,
      "componentType": 5126,
      "count": 120,
      "max": [
        1.0,
        0.9016259908676147,
        0.9857419729232788
      ],
      "min": [
        -1.0,
        0.013837800361216068,
        -0.98574298620224
      ],
      "type": "VEC3"
    },
    {
      "bufferView": 2,
      "byteOffset": 12480,
      "componentType": 5126,
      "count": 120,
      "max": [
        0.8546013236045837,
        0.9964951276779175,
        0.40550708770751953
      ],
      "min": [
        -0.5426320433616638,
        0.3922710120677948,
        -0.8447012901306152
      ],
      "type": "VEC3"
    },
    {
      "bufferView": 3,
      "byteOffset": 7360,
      "componentType": 5126,
      "count": 120,
      "max": [
        0.9464371204376221,
        0.6081827878952026,
        0.953476071357727,
        1.0
      ],
      "min": [
        -0.9569664597511292,
        -0.5624983906745911,
        -0.8686966300010681,
        1.0
      ],
      "type": "VEC4"
    },
    {
      "bufferView": 1,
      "byteOffset": 7360,
      "componentType": 5126,
      "count": 120,
      "max": [
        0.28793400526046753,
        0.9792119860649109
      ],
      "min": [
        0.020788399502635002,
        0.020788399502635002
      ],
      "type": "VEC2"
    },
    {
      "bufferView": 1,
      "byteOffset": 8320,
      "componentType": 5126,
      "count": 120,
      "max": [
        0.28793400526046753,
        0.9792119860649109
      ],
      "min": [
        0.020788399502635002,
        0.020788399502635002
      ],
      "type": "VEC2"
    },
    {
      "bufferView": 0,
      "byteOffset": 6696,
      "componentType": 5125,
      "count": 300,
      "type": "SCALAR"
    }
  ],
  "asset": {
    "extras": {
      "author": "karma (https://sketchfab.com/mikejimmyalmeida)",
      "license": "CC-BY-4.0 (http://creativecommons.org/licenses/by/4.0/)",
      "source": "https://sketchfab.com/3d-models/palm-tree-45a74e13bdcb433fa77a24b7113c189d",
      "title": "Palm Tree"
    },
    "generator": "Sketchfab-12.68.0",
    "version": "2.0"
  },
  "bufferViews": [
    {
      "buffer": 0,
      "byteLength": 7896,
      "name": "floatBufferViews",
      "target": 34963
    },
    {
      "buffer": 0,
      "byteLength": 9280,
      "byteOffset": 7896,
      "byteStride": 8,
      "name": "floatBufferViews",
      "target": 34962
    },
    {
      "buffer": 0,
      "byteLength": 13920,
      "byteOffset": 17176,
      "byteStride": 12,
      "name": "floatBufferViews",
      "target": 34962
    },
    {
      "buffer": 0,
      "byteLength": 9280,
      "byteOffset": 31096,
      "byteStride": 16,
      "name": "floatBufferViews",
      "target": 34962
    }
  ],
  "buffers": [
    {
      "byteLength": 40376,
      "uri": "scene.bin"
    }
  ],
  "images": [
    {
      "uri": "textures/PalmLeaf_baseColor.jpeg"
    },
    {
      "uri": "textures/PalmLeaf_metallicRoughness.png"
    },
    {
      "uri": "textures/PalmLeaf_normal.png"
    },
    {
      "uri": "textures/palmTree_M_baseColor.jpeg"
    },
    {
      "uri": "textures/palmTree_M_metallicRoughness.png"
    },
    {
      "uri": "textures/palmTree_M_normal.png"
    },
    {
      "uri": "textures/coconut_baseColor.jpeg"
    },
    {
      "uri": "textures/coconut_metallicRoughness.png"
    },
    {
      "uri": "textures/coconut_normal.png"
    }
  ],
  "materials": [
    {
      "doubleSided": true,
      "name": "PalmLeaf",
      "normalTexture": {
        "index": 2
      },
      "occlusionTexture": {
        "index": 1
      },
      "pbrMetallicRoughness": {
        "baseColorTexture": {
          "index": 0
        },
        "metallicRoughnessTexture": {
          "index": 1
        }
      }
    },
    {
      "doubleSided": true,
      "name": "palmTree_M",
      "normalTexture": {
        "index": 5
      },
      "occlusionTexture": {
        "index": 4
      },
      "pbrMetallicRoughness": {
        "baseColorTexture": {
          "index": 3
        },
        "metallicRoughnessTexture": {
          "index": 4
        }
      }
    },
    {
      "doubleSided": true,
      "name": "coconut",
      "normalTexture": {
        "index": 8
      },
      "occlusionTexture": {
        "index": 7
      },
      "pbrMetallicRoughness": {
        "baseColorTexture": {
          "index": 6
        },
        "metallicRoughnessTexture": {
          "index": 7
        }
      }
    }
  ],
  "meshes": [
    {
      "name": "defaultMaterial",
      "primitives": [
        {
          "attributes": {
            "NORMAL": 1,
            "POSITION": 0,
            "TANGENT": 2,
            "TEXCOORD_0": 3,
            "TEXCOORD_1": 4
          },
          "indices": 5,
          "material": 2,
          "mode": 4
        }
      ]
    },
    {
      "name": "defaultMaterial",
      "primitives": [
        {
          "attributes": {
            "NORMAL": 7,
            "POSITION": 6,
            "TANGENT": 8,
            "TEXCOORD_0": 9,
            "TEXCOORD_1": 10
          },
          "indices": 11,
          "material": 1,
          "mode": 4
        }
      ]
    },
    {
      "name": "defaultMaterial",
      "primitives": [
        {
          "attributes": {
            "NORMAL": 13,
            "POSITION": 12,
            "TANGENT": 14,
            "TEXCOORD_0": 15,
            "TEXCOORD_1": 16
          },
          "indices": 17,
          "material": 0,
          "mode": 4
        }
      ]
    }
  ],
  "nodes": [
    {
      "children": [
        1
      ],
      "matrix": [
        1.0,
        0.0,
        0.0,
        0.0,
        0.0,
        2.220446049250313e-16,
        -1.0,
        0.0,
        0.0,
        1.0,
        2.220446049250313e-16,
        0.0,
        0.0,
        0.0,
        0.0,
        1.0
      ],
      "name": "Sketchfab_model"
    },
    {
      "children": [
        2,
        4,
        6
      ],
      "matrix": [
        1.0,
        0.0,
        0.0,
        0.0,
        0.0,
        -4.371139006309477e-08,
        0.999999999999999,
        0.0,
        0.0,
        -0.999999999999999,
        -4.371139006309477e-08,
        0.0,
        0.0,
        0.0,
        0.0,
        1.0
      ],
      "name": "Collada visual scene group"
    },
    {
      "children": [
        3
      ],
      "name": "Plane.009"
    },
    {
      "mesh": 0,
      "name": "defaultMaterial"
    },
    {
      "children": [
        5
      ],
      "name": "Plane.009"
    },
    {
      "mesh": 1,
      "name": "defaultMaterial"
    },
    {
      "children": [
        7
      ],
      "name": "Plane.009"
    },
    {
      "mesh": 2,
      "name": "defaultMaterial"
    }
  ],
  "samplers": [
    {
      "magFilter": 9729,
      "minFilter": 9987,
      "wrapS": 10497,
      "wrapT": 10497
    }
  ],
  "scene": 0,
  "scenes": [
    {
      "name": "Sketchfab_Scene",
      "nodes": [
        0
      ]
    }
  ],
  "textures": [
    {
      "sampler": 0,
      "source": 0
    },
    {
      "sampler": 0,
      "source": 1
    },
    {
      "sampler": 0,
      "source": 2
    },
    {
      "sampler": 0,
      "source": 3
    },
    {
      "sampler": 0,
      "source": 4
    },
    {
      "sampler": 0,
      "source": 5
    },
    {
      "sampler": 0,
      "source": 6
    },
    {
      "sampler": 0,
      "source": 7
    },
    {
      "sampler": 0,
      "source": 8
    }
  ]
}
