{
  "accessors": [
    {
      "bufferView": 2,
      "componentType": 5126,
      "count": 10857,
      "max": [
        -63.97660446166992,
        302.4830017089844,
        4.100279808044434
      ],
      "min": [
        -71.17910766601563,
        285.3080139160156,
        0.27923300862312317
      ],
      "type": "VEC3"
    },
    {
      "bufferView": 2,
      "byteOffset": 130284,
      "componentType": 5126,
      "count": 10857,
      "max": [
        1.0,
        1.0,
        0.9999934434890747
      ],
      "min": [
        -1.0,
        -0.9999864101409912,
        -0.9986550807952881
      ],
      "type": "VEC3"
    },
    {
      "bufferView": 1,
      "componentType": 5126,
      "count": 10857,
      "max": [
        0.9938660264015198,
        0.98956298828125
      ],
      "min": [
        0.012206999585032463,
        0.004975020885467529
      ],
      "type": "VEC2"
    },
    {
      "bufferView": 0,
      "componentType": 5125,
      "count": 34992,
      "type": "SCALAR"
    },
    {
      "bufferView": 2,
      "byteOffset": 260568,
      "componentType": 5126,
      "count": 38,
      "max": [
        -66.51710510253906,
        285.54400634765625,
        2.568300247192383
      ],
      "min": [
        -68.62090301513672,
        285.3480224609375,
        2.025750160217285
      ],
      "type": "VEC3"
    },
    {
      "bufferView": 2,
      "byteOffset": 261024,
      "componentType": 5126,
      "count": 38,
      "max": [
        0.998972475528717,
        0.1981009840965271,
        0.9802501797676086
      ],
      "min": [
        -0.998414158821106,
        -0.9718037843704224,
        -0.9798359274864197
      ],
      "type": "VEC3"
    },
    {
      "bufferView": 1,
      "byteOffset": 86856,
      "componentType": 5126,
      "count": 38,
      "max": [
        0.9938349723815918,
        0.5329749584197998
      ],
      "min": [
        0.005127000156790018,
        0.2787870168685913
      ],
      "type": "VEC2"
    },
    {
      "bufferView": 0,
      "byteOffset": 139968,
      "componentType": 5125,
      "count": 84,
      "type": "SCALAR"
    },
    {
      "bufferView": 2,
      "byteOffset": 261480,
      "componentType": 5126,
      "count": 598,
      "max": [
        -64.75310516357422,
        292.1260070800781,
        5.1060404777526855
      ],
      "min": [
        -70.40260314941406,
        290.9840087890625,
        3.659600257873535
      ],
      "type": "VEC3"
    },
    {
      "bufferView": 2,
      "byteOffset": 268656,
      "componentType": 5126,
      "count": 598,
      "max": [
        1.0,
        0.9535602331161499,
        0.9983435869216919
      ],
      "min": [
        -1.0,
        -0.9855632781982422,
        -0.7950634360313416
      ],
      "type": "VEC3"
    },
    {
      "bufferView": 0,
      "byteOffset": 140304,
      "componentType": 5125,
      "count": 2478,
      "type": "SCALAR"
    },
    {
      "bufferView": 2,
      "byteOffset": 275832,
      "componentType": 5126,
      "count": 7303,
      "max": [
        -63.611602783203125,
        302.9590148925781,
        5.013649940490723
      ],
      "min": [
        -71.54410552978516,
        285.260009765625,
        0.6245710253715515
      ],
      "type": "VEC3"
    },
    {
      "bufferView": 2,
      "byteOffset": 363468,
      "componentType": 5126,
      "count": 7303,
      "max": [
        1.0,
        0.9998970627784729,
        0.9999873638153076
      ],
      "min": [
        -1.0,
        -1.0,
        -1.0
      ],
      "type": "VEC3"
    },
    {
      "bufferView": 1,
      "byteOffset": 87160,
      "componentType": 5126,
      "count": 7303,
      "max": [
        0.9946290254592896,
        0.9959409832954407
      ],
      "min": [
        0.0019229999743402004,
        0.0027769804000854492
      ],
      "type": "VEC2"
    },
    {
      "bufferView": 0,
      "byteOffset": 150216,
      "componentType": 5125,
      "count": 30699,
      "type": "SCALAR"
    },
    {
      "bufferView": 2,
      "byteOffset": 451104,
      "componentType": 5126,
      "count": 8904,
      "max": [
        -63.61680221557617,
        302.97802734375,
        5.000600337982178
      ],
      "min": [
        -71.53890228271484,
        285.29901123046875,
        0.6244970560073853
      ],
      "type": "VEC3"
    },
    {
      "bufferView": 2,
      "byteOffset": 557952,
      "componentType": 5126,
      "count": 8904,
      "max": [
        1.0,
        1.0,
        0.9998204112052917
      ],
      "min": [
        -1.0,
        -0.9990846514701843,
        -0.9999983310699463
      ],
      "type": "VEC3"
    },
    {
      "bufferView": 0,
      "byteOffset": 273012,
      "componentType": 5125,
      "count": 30045,
      "type": "SCALAR"
    },
    {
      "bufferView": 2,
      "byteOffset": 664800,
      "componentType": 5126,
      "count": 709,
      "max": [
        -64.36199951171875,
        302.5250244140625,
        5.005270481109619
      ],
      "min": [
        -70.79370880126953,
        285.7610168457031,
        1.6814100742340088
      ],
      "type": "VEC3"
    },
    {
      "bufferView": 2,
      "byteOffset": 673308,
      "componentType": 5126,
      "count": 709,
      "max": [
        0.9282573461532593,
        0.8507858514785767,
        0.9930302500724792
      ],
      "min": [
        -0.9282573461532593,
        -0.8456975817680359,
        -0.9690030813217163
      ],
      "type": "VEC3"
    },
    {
      "bufferView": 0,
      "byteOffset": 393192,
      "componentType": 5125,
      "count": 3090,
      "type": "SCALAR"
    },
    {
      "bufferView": 2,
      "byteOffset": 681816,
      "componentType": 5126,
      "count": 282,
      "max": [
        -64.7175064086914,
        287.468017578125,
        4.1143598556518555
      ],
      "min": [
        -70.4382095336914,
        285.593017578125,
        3.088060140609741
      ],
      "type": "VEC3"
    },
    {
      "bufferView": 2,
      "byteOffset": 685200,
      "componentType": 5126,
      "count": 282,
      "max": [
        0.9944179058074951,
        0.007887521758675575,
        0.9934771060943604
      ],
      "min": [
        -0.9943978190422058,
        -0.9952448606491089,
        -0.9813132882118225
      ],
      "type": "VEC3"
    },
    {
      "bufferView": 0,
      "byteOffset": 405552,
      "componentType": 5125,
      "count": 1266,
      "type": "SCALAR"
    },
    {
      "bufferView": 2,
      "byteOffset": 688584,
      "componentType": 5126,
      "count": 34,
      "max": [
        -63.65340042114258,
        295.2900085449219,
        3.964710235595703
      ],
      "min": [
        -71.50230407714844,
        295.0370178222656,
        3.5107202529907227
      ],
      "type": "VEC3"
    },
    {
      "bufferView": 2,
      "byteOffset": 688992,
      "componentType": 5126,
      "count": 34,
      "max": [
        0.34407204389572144,
        -0.9355184435844421,
        0.08083516359329224
      ],
      "min": [
        -0.34383708238601685,
        -0.9390251636505127,
        0.07439475506544113
      ],
      "type": "VEC3"
    },
    {
      "bufferView": 0,
      "byteOffset": 410616,
      "componentType": 5125,
      "count": 102,
      "type": "SCALAR"
    },
    {
      "bufferView": 2,
      "byteOffset": 689400,
      "componentType": 5126,
      "count": 6318,
      "max": [
        -64.64500427246094,
        297.7610168457031,
        5.06989049911499
      ],
      "min": [
        -70.51070404052734,
        287.89300537109375,
        0.8657510280609131
      ],
      "type": "VEC3"
    },
    {
      "bufferView": 2,
      "byteOffset": 765216,
      "componentType": 5126,
      "count": 6318,
      "max": [
        1.0,
        1.0,
        1.0
      ],
      "min": [
        -1.0,
        -1.0,
        -0.999949038028717
      ],
      "type": "VEC3"
    },
    {
      "bufferView": 1,
      "byteOffset": 145584,
      "componentType": 5126,
      "count": 6318,
      "max": [
        0.9991379976272583,
        0.9970399737358093
      ],
      "min": [
        0.005468999966979027,
        -0.0017399787902832031
      ],
      "type": "VEC2"
    },
    {
      "bufferView": 1,
      "byteOffset": 196128,
      "componentType": 5126,
      "count": 6318,
      "max": [
        0.9991379976272583,
        0.9970399737358093
      ],
      "min": [
        0.005468999966979027,
        -0.0017399787902832031
      ],
      "type": "VEC2"
    },
    {
      "bufferView": 1,
      "byteOffset": 246672,
      "componentType": 5126,
      "count": 6318,
      "max": [
        0.9991379976272583,
        0.9970399737358093
      ],
      "min": [
        0.005468999966979027,
        -0.0017399787902832031
      ],
      "type": "VEC2"
    },
    {
      "bufferView": 0,
      "byteOffset": 411024,
      "componentType": 5125,
      "count": 17001,
      "type": "SCALAR"
    },
    {
      "bufferView": 2,
      "byteOffset": 841032,
      "componentType": 5126,
      "count": 1223,
      "max": [
        -63.9701042175293,
        300.2710266113281,
        2.8613603115081787
      ],
      "min": [
        -71.18080139160156,
        287.96502685546875,
        0.11406800895929337
      ],
      "type": "VEC3"
    },
    {
      "bufferView": 2,
      "byteOffset": 855708,
      "componentType": 5126,
      "count": 1223,
      "max": [
        0.9911389350891113,
        0.9947943091392517,
        0.9927976131439209
      ],
      "min": [
        -0.9999379515647888,
        -0.9947941303253174,
        -0.9947114586830139
      ],
      "type": "VEC3"
    },
    {
      "bufferView": 1,
      "byteOffset": 297216,
      "componentType": 5126,
      "count": 1223,
      "max": [
        0.9739369750022888,
        0.9753109812736511
      ],
      "min": [
        0.5242469906806946,
        0.5247349739074707
      ],
      "type": "VEC2"
    },
    {
      "bufferView": 0,
      "byteOffset": 479028,
      "componentType": 5125,
      "count": 3444,
      "type": "SCALAR"
    }
  ],
  "asset": {
    "extras": {
      "author": "supercarmodels (https://sketchfab.com/supercarmodels)",
      "license": "CC-BY-4.0 (http://creativecommons.org/licenses/by/4.0/)",
      "source": "https://sketchfab.com/3d-models/2020-porsche-911-targa-212107e5328940ae9bfc0bd74ad428ad",
      "title": "2020 Porsche 911 Targa"
    },
    "generator": "Sketchfab-16.16.0",
    "version": "2.0"
  },
  "bufferViews": [
    {
      "buffer": 0,
      "byteLength": 492804,
      "name": "floatBufferViews",
      "target": 34963
    },
    {
      "buffer": 0,
      "byteLength": 307000,
      "byteOffset": 492804,
      "byteStride": 8,
      "name": "floatBufferViews",
      "target": 34962
    },
    {
      "buffer": 0,
      "byteLength": 870384,
      "byteOffset": 799804,
      "byteStride": 12,
      "name": "floatBufferViews",
      "target": 34962
    }
  ],
  "buffers": [
    {
      "byteLength": 1670188,
      "uri": "scene.bin"
    }
  ],
  "images": [
    {
      "uri": "textures/material_0_baseColor.png"
    },
    {
      "uri": "textures/material_1_baseColor.png"
    },
    {
      "uri": "textures/material_3_baseColor.png"
    },
    {
      "uri": "textures/material_3_metallicRoughness.png"
    },
    {
      "uri": "textures/material_4_baseColor.png"
    }
  ],
  "materials": [
    {
      "name": "material_0",
      "pbrMetallicRoughness": {
        "baseColorTexture": {
          "index": 0
        },
        "roughnessFactor": 0.0
      }
    },
    {
      "name": "material_1",
      "pbrMetallicRoughness": {
        "baseColorTexture": {
          "index": 1
        }
      }
    },
    {
      "name": "White",
      "pbrMetallicRoughness": {
        "roughnessFactor": 0.0
      }
    },
    {
      "name": "material_2",
      "pbrMetallicRoughness": {
        "baseColorFactor": [
          1.0,
          0.7066519421409101,
          0.0,
          1.0
        ],
        "metallicFactor": 0.0,
        "roughnessFactor": 0.0
      }
    },
    {
      "name": "Detachdoorr50plastikblack1Mtl",
      "pbrMetallicRoughness": {
        "baseColorFactor": [
          0.00273174,
          0.00273174,
          0.00273174,
          1.0
        ],
        "metallicFactor": 0.05,
        "roughnessFactor": 0.0
      }
    },
    {
      "alphaMode": "BLEND",
      "name": "Translucent",
      "pbrMetallicRoughness": {
        "baseColorFactor": [
          0.30987201059071434,
          0.30987201059071434,
          0.30987201059071434,
          0.44942389696999124
        ],
        "roughnessFactor": 0.0
      }
    },
    {
      "name": "Glassesglassred1Mtl",
      "pbrMetallicRoughness": {
        "baseColorFactor": [
          1.0,
          0.0,
          0.0,
          1.0
        ],
        "roughnessFactor": 0.0
      }
    },
    {
      "name": "material_3",
      "pbrMetallicRoughness": {
        "baseColorTexture": {
          "index": 2
        },
        "metallicFactor": 0.0,
        "metallicRoughnessTexture": {
          "index": 3
        }
      }
    },
    {
      "name": "material_4",
      "pbrMetallicRoughness": {
        "baseColorTexture": {
          "index": 4
        },
        "metallicFactor": 0.0,
        "roughnessFactor": 0.2958762849584502
      }
    }
  ],
  "meshes": [
    {
      "name": "Object_0",
      "primitives": [
        {
          "attributes": {
            "NORMAL": 1,
            "POSITION": 0,
            "TEXCOORD_0": 2
          },
          "indices": 3,
          "material": 0,
          "mode": 4
        }
      ]
    },
    {
      "name": "Object_1",
      "primitives": [
        {
          "attributes": {
            "NORMAL": 5,
            "POSITION": 4,
            "TEXCOORD_0": 6
          },
          "indices": 7,
          "material": 1,
          "mode": 4
        }
      ]
    },
    {
      "name": "Object_2",
      "primitives": [
        {
          "attributes": {
            "NORMAL": 9,
            "POSITION": 8
          },
          "indices": 10,
          "material": 2,
          "mode": 4
        }
      ]
    },
    {
      "name": "Object_3",
      "primitives": [
        {
          "attributes": {
            "NORMAL": 12,
            "POSITION": 11,
            "TEXCOORD_0": 13
          },
          "indices": 14,
          "material": 3,
          "mode": 4
        }
      ]
    },
    {
      "name": "Object_4",
      "primitives": [
        {
          "attributes": {
            "NORMAL": 16,
            "POSITION": 15
          },
          "indices": 17,
          "material": 4,
          "mode": 4
        }
      ]
    },
    {
      "name": "Object_5",
      "primitives": [
        {
          "attributes": {
            "NORMAL": 19,
            "POSITION": 18
          },
          "indices": 20,
          "material": 5,
          "mode": 4
        }
      ]
    },
    {
      "name": "Object_6",
      "primitives": [
        {
          "attributes": {
            "NORMAL": 22,
            "POSITION": 21
          },
          "indices": 23,
          "material": 6,
          "mode": 4
        }
      ]
    },
    {
      "name": "Object_7",
      "primitives": [
        {
          "attributes": {
            "NORMAL": 25,
            "POSITION": 24
          },
          "indices": 26,
          "material": 2,
          "mode": 4
        }
      ]
    },
    {
      "name": "Object_8",
      "primitives": [
        {
          "attributes": {
            "NORMAL": 28,
            "POSITION": 27,
            "TEXCOORD_0": 29,
            "TEXCOORD_1": 30,
            "TEXCOORD_2": 31
          },
          "indices": 32,
          "material": 7,
          "mode": 4
        }
      ]
    },
    {
      "name": "Object_9",
      "primitives": [
        {
          "attributes": {
            "NORMAL": 34,
            "POSITION": 33,
            "TEXCOORD_0": 35
          },
          "indices": 36,
          "material": 8,
          "mode": 4
        }
      ]
    }
  ],
  "nodes": [
    {
      "children": [
        1
      ],
      "matrix": [
        1.0,
        0.0,
        0.0,
        0.0,
        0.0,
        2.220446049250313e-16,
        -1.0,
        0.0,
        0.0,
        1.0,
        2.220446049250313e-16,
        0.0,
        0.0,
        0.0,
        0.0,
        1.0
      ],
      "name": "Sketchfab_model"
    },
    {
      "children": [
        2
      ],
      "name": "root"
    },
    {
      "children": [
        3,
        5,
        7,
        10,
        12,
        14,
        16,
        19
      ],
      "matrix": [
        1.0,
        0.0,
        0.0,
        0.0,
        0.0,
        2.220446049250313e-16,
        1.0,
        0.0,
        0.0,
        -1.0,
        2.220446049250313e-16,
        0.0,
        0.0,
        0.0,
        0.0,
        1.0
      ],
      "name": "GLTF_SceneRootNode"
    },
    {
      "children": [
        4
      ],
      "matrix": [
        0.9999999403953552,
        0.0,
        0.0,
        0.0,
        0.0,
        -1.1920928244535389e-07,
        -0.9999998211860657,
        0.0,
        0.0,
        0.9999998211860657,
        -1.1920928244535389e-07,
        0.0,
        67.57789611816406,
        -0.11403292417526245,
        294.11895751953125,
        1.0
      ],
      "name": "_0"
    },
    {
      "mesh": 0,
      "name": "Object_4"
    },
    {
      "children": [
        6
      ],
      "matrix": [
        0.9999999403953552,
        0.0,
        0.0,
        0.0,
        0.0,
        -1.1920928244535389e-07,
        -0.9999998211860657,
        0.0,
        0.0,
        0.9999998211860657,
        -1.1920928244535389e-07,
        0.0,
        67.57789611816406,
        -0.11403292417526245,
        294.11895751953125,
        1.0
      ],
      "name": "_1"
    },
    {
      "mesh": 1,
      "name": "Object_6"
    },
    {
      "children": [
        8,
        9
      ],
      "matrix": [
        0.9999999403953552,
        0.0,
        0.0,
        0.0,
        0.0,
        -1.1920928244535389e-07,
        -0.9999998211860657,
        0.0,
        0.0,
        0.9999998211860657,
        -1.1920928244535389e-07,
        0.0,
        67.57789611816406,
        -0.11403292417526245,
        294.11895751953125,
        1.0
      ],
      "name": "_2"
    },
    {
      "mesh": 2,
      "name": "Object_8"
    },
    {
      "mesh": 3,
      "name": "Object_9"
    },
    {
      "children": [
        11
      ],
      "matrix": [
        0.9999999403953552,
        0.0,
        0.0,
        0.0,
        0.0,
        -1.1920928244535389e-07,
        -0.9999998211860657,
        0.0,
        0.0,
        0.9999998211860657,
        -1.1920928244535389e-07,
        0.0,
        67.57789611816406,
        -0.11403292417526245,
        294.11895751953125,
        1.0
      ],
      "name": "_3"
    },
    {
      "mesh": 4,
      "name": "Object_11"
    },
    {
      "children": [
        13
      ],
      "matrix": [
        0.9999999403953552,
        0.0,
        0.0,
        0.0,
        0.0,
        -1.1920928244535389e-07,
        -0.9999998211860657,
        0.0,
        0.0,
        0.9999998211860657,
        -1.1920928244535389e-07,
        0.0,
        67.57789611816406,
        -0.11403292417526245,
        294.11895751953125,
        1.0
      ],
      "name": "_4"
    },
    {
      "mesh": 5,
      "name": "Object_13"
    },
    {
      "children": [
        15
      ],
      "matrix": [
        0.9999999403953552,
        0.0,
        0.0,
        0.0,
        0.0,
        -1.1920928244535389e-07,
        -0.9999998211860657,
        0.0,
        0.0,
        0.9999998211860657,
        -1.1920928244535389e-07,
        0.0,
        67.57789611816406,
        -0.11403292417526245,
        294.11895751953125,
        1.0
      ],
      "name": "_5"
    },
    {
      "mesh": 6,
      "name": "Object_15"
    },
    {
      "children": [
        17,
        18
      ],
      "matrix": [
        0.9999999403953552,
        0.0,
        0.0,
        0.0,
        0.0,
        -1.1920928244535389e-07,
        -0.9999998211860657,
        0.0,
        0.0,
        0.9999998211860657,
        -1.1920928244535389e-07,
        0.0,
        67.57789611816406,
        -0.11403292417526245,
        294.11895751953125,
        1.0
      ],
      "name": "_6"
    },
    {
      "mesh": 7,
      "name": "Object_17"
    },
    {
      "mesh": 8,
      "name": "Object_18"
    },
    {
      "children": [
        20
      ],
      "matrix": [
        0.9999999403953552,
        0.0,
        0.0,
        0.0,
        0.0,
        -1.1920928244535389e-07,
        -0.9999998211860657,
        0.0,
        0.0,
        0.9999998211860657,
        -1.1920928244535389e-07,
        0.0,
        67.57789611816406,
        -0.11403292417526245,
        294.11895751953125,
        1.0
      ],
      "name": "_7"
    },
    {
      "mesh": 9,
      "name": "Object_20"
    }
  ],
  "samplers": [
    {
      "magFilter": 9729,
      "minFilter": 9729,
      "wrapS": 10497,
      "wrapT": 10497
    }
  ],
  "scene": 0,
  "scenes": [
    {
      "name": "Sketchfab_Scene",
      "nodes": [
        0
      ]
    }
  ],
  "textures": [
    {
      "sampler": 0,
      "source": 0
    },
    {
      "sampler": 0,
      "source": 1
    },
    {
      "sampler": 0,
      "source": 2
    },
    {
      "sampler": 0,
      "source": 3
    },
    {
      "sampler": 0,
      "source": 4
    }
  ]
}
